# xmcd CD database file
#
# Track frame offsets:
#	150
#	41372
#	85838
#	124173
#	159806
#	191293
#	221486
#
# Disc length: 3588 seconds
#
# Revision: 0
# Processed by: cddbd v1.5.2PL0 Copyright (c) Steve Scherf et al.
# Submitted via: CDex 1.70beta2
#
DISCID=4d0e0207
DTITLE=Darren Johnston - The Edge Of The Forest
DYEAR=2008
DGENRE=Jazz
TTITLE0=Be The Frog
TTITLE1=Foggy
TTITLE2=Cabin 5
TTITLE3=Broken
TTITLE4=Apples
TTITLE5=The Edge Of The Forest
TTITLE6=Sippn' With Lou
EXTD=YEAR: 2008
EXTT0=
EXTT1=
EXTT2=
EXTT3=
EXTT4=
EXTT5=
EXTT6=
PLAYORDER=
